<?xml version="1.0" encoding="utf-8"?>
<!-- Generator: Adobe Illustrator 24.3.0, SVG Export Plug-In . SVG Version: 6.00 Build 0)  -->
<svg version="1.1" id="Layer_1" xmlns="http://www.w3.org/2000/svg" xmlns:xlink="http://www.w3.org/1999/xlink" x="0px" y="0px"
	 viewBox="0 0 4000 4000" style="enable-background:new 0 0 4000 4000;" xml:space="preserve">
<style type="text/css">
	.st0{fill:url(#SVGID_1_);}
	.st1{fill:url(#SVGID_2_);}
	.st2{fill:url(#SVGID_3_);}
	.st3{fill:url(#SVGID_4_);}
	.st4{fill:url(#SVGID_5_);}
	.st5{fill:url(#SVGID_6_);}
	.st6{fill:url(#SVGID_7_);}
	.st7{fill:url(#SVGID_8_);}
	.st8{fill:url(#SVGID_9_);}
	.st9{fill:url(#SVGID_10_);}
	.st10{fill:url(#SVGID_11_);}
	.st11{fill:url(#SVGID_12_);}
	.st12{fill:url(#SVGID_13_);}
	.st13{fill:url(#SVGID_14_);}
	.st14{fill:url(#SVGID_15_);}
	.st15{fill:url(#SVGID_16_);}
	.st16{fill:url(#SVGID_17_);}
	.st17{fill:url(#SVGID_18_);}
	.st18{fill:url(#SVGID_19_);}
	.st19{fill:url(#SVGID_20_);}
	.st20{fill:url(#SVGID_21_);}
	.st21{fill:url(#SVGID_22_);}
	.st22{fill:url(#SVGID_23_);}
	.st23{fill:url(#SVGID_24_);}
	.st24{fill:url(#SVGID_25_);}
	.st25{fill:url(#SVGID_26_);}
	.st26{fill:url(#SVGID_27_);}
	.st27{fill:url(#SVGID_28_);}
	.st28{fill:url(#SVGID_29_);}
	.st29{fill:url(#SVGID_30_);}
	.st30{fill:url(#SVGID_31_);}
	.st31{fill:url(#SVGID_32_);}
	.st32{fill:url(#SVGID_33_);}
	.st33{fill:url(#SVGID_34_);}
	.st34{fill:url(#SVGID_35_);}
	.st35{fill:url(#SVGID_36_);}
	.st36{fill:url(#SVGID_37_);}
	.st37{fill:url(#SVGID_38_);}
	.st38{fill:url(#SVGID_39_);}
	.st39{fill:url(#SVGID_40_);}
	.st40{fill:url(#SVGID_41_);}
	.st41{fill:url(#SVGID_42_);}
	.st42{fill:url(#SVGID_43_);}
	.st43{fill:url(#SVGID_44_);}
	.st44{fill:url(#SVGID_45_);}
</style>
<g>
	<g>
		<g>
			<radialGradient id="SVGID_1_" cx="2000" cy="1972.7593" r="524.1803" gradientUnits="userSpaceOnUse">
				<stop  offset="0.0696" style="stop-color:#CB9641"/>
				<stop  offset="0.5023" style="stop-color:#EDBF81"/>
				<stop  offset="1" style="stop-color:#C08329"/>
			</radialGradient>
			<path class="st0" d="M2000,2496.94c-289.03,0-524.18-235.15-524.18-524.18s235.15-524.18,524.18-524.18
				s524.18,235.15,524.18,524.18S2289.03,2496.94,2000,2496.94z M2000,1482.06c-270.57,0-490.7,220.13-490.7,490.7
				s220.13,490.7,490.7,490.7s490.7-220.13,490.7-490.7S2270.57,1482.06,2000,1482.06z"/>
		</g>
		<g>
			<g>
				<g>
					<radialGradient id="SVGID_2_" cx="2430.5613" cy="2010.7202" r="333.2628" gradientUnits="userSpaceOnUse">
						<stop  offset="0.0696" style="stop-color:#CB9641"/>
						<stop  offset="0.5023" style="stop-color:#EDBF81"/>
						<stop  offset="1" style="stop-color:#C08329"/>
					</radialGradient>
					<path class="st1" d="M2455.8,1583.18c4.42-3.79,12.65-2.41,24.48,4.25c5.87,3.36,12.9,7.84,19.91,14.26
						c3.59,3.14,7.38,6.63,11.34,10.46c1.97,1.94,4,3.93,6.08,5.99c2.06,2.09,3.94,4.41,5.98,6.73
						c7.94,9.43,17.04,19.95,25.16,32.63c4.14,6.29,8.72,12.77,12.81,19.87c4.02,7.13,8.13,14.6,12.31,22.4
						c15.93,31.51,30.51,69.51,39.93,113.22c2.16,10.96,4.97,23.66,6.42,38.16c0.82,7.23,1.91,14.81,2.54,22.79
						c0.43,8,0.88,16.34,1.35,25.01c1.03,34.67-0.94,74.59-8.61,116.5c-7.55,41.88-21.03,85.68-40.31,127.14
						c-19.18,41.53-43.94,80.81-71.81,115.38c-27.83,34.62-58.67,64.6-89.42,88.74c-30.69,24.26-61.05,42.79-87.33,56.9
						c-6.71,3.26-13.12,6.36-19.2,9.31c-3.03,1.47-5.97,2.89-8.83,4.27c-2.89,1.31-5.78,2.41-8.53,3.56
						c-5.51,2.25-10.64,4.36-15.38,6.3c-2.36,0.97-4.62,1.89-6.78,2.77c-2.21,0.75-4.32,1.47-6.31,2.15
						c-15.92,5.36-24.85,8.36-24.85,8.36s8.4-4.19,23.39-11.68c1.86-0.94,3.83-1.93,5.89-2.97c2-1.16,4.1-2.38,6.3-3.65
						c4.37-2.53,9.11-5.28,14.2-8.22c2.52-1.49,5.18-2.93,7.83-4.6c2.6-1.73,5.29-3.51,8.05-5.34c5.5-3.65,11.3-7.5,17.37-11.53
						c23.61-17.11,50.29-38.76,76.3-65.47c26.09-26.59,51.27-58.34,72.92-93.37c21.7-35,39.77-73.33,52.6-112.27
						c12.93-38.94,20.42-78.33,23.35-115.39c3.01-37.08,1.58-71.66-1.42-101.46c-0.89-7.44-1.76-14.6-2.58-21.46
						c-0.95-6.84-2.28-13.32-3.26-19.5c-1.77-12.4-4.56-23.25-6.39-32.68c-8.1-37.58-18.49-70.79-28.65-99.77
						c-2.73-7.16-5.29-14.13-7.69-20.9c-2.47-6.74-5.33-12.98-7.71-19.2c-4.59-12.53-9.89-23.44-13.92-33.84
						c-1.06-2.57-1.95-5.16-3.01-7.55c-1.05-2.4-2.08-4.74-3.07-7c-1.95-4.57-3.69-8.92-5.23-13.06
						c-2.91-8.41-5.76-15.34-7.44-21.54C2451.15,1595.56,2451.38,1586.98,2455.8,1583.18z"/>
				</g>
				<g>
					<radialGradient id="SVGID_3_" cx="2611.6699" cy="2105.3472" r="258.1499" gradientUnits="userSpaceOnUse">
						<stop  offset="0.0696" style="stop-color:#CB9641"/>
						<stop  offset="0.5023" style="stop-color:#EDBF81"/>
						<stop  offset="1" style="stop-color:#C08329"/>
					</radialGradient>
					<path class="st2" d="M2730.76,1796.08c5.41-2.15,12.24,0.37,20.25,7.63c3.98,3.64,8.45,8.4,12.51,14.55
						c2.1,3.05,4.25,6.4,6.44,10.04c2.22,3.64,4.45,7.57,6.4,11.88c4,8.59,8.5,18.27,11.89,29.29c1.76,5.5,3.75,11.24,5.29,17.31
						c1.49,6.08,2.96,12.44,4.39,19.06c5.16,26.52,7.93,57.53,5.87,91.67c-0.65,8.52-1.25,18.45-3.12,29.44
						c-0.87,5.5-1.64,11.3-2.8,17.31c-1.3,5.99-2.65,12.24-4.06,18.73c-6.2,25.8-15.49,54.88-28.96,84.5
						c-13.39,29.62-31.07,59.73-52.22,87.46c-21.1,27.79-45.55,53.3-71.36,75.15c-25.79,21.89-52.86,40.18-78.94,54.42
						c-26.05,14.32-50.96,24.7-72.24,32.37c-21.51,7.21-39.32,11.87-51.79,14.56c-12.48,2.49-19.47,3.89-19.47,3.89
						s6.6-2.64,18.38-7.35c11.68-4.85,28.17-12.56,47.47-23.12c19.09-11.01,40.89-25.02,62.85-42.57c22-17.46,44-38.54,64.03-62.15
						c20.06-23.59,38.1-49.74,52.78-76.75c14.75-27.01,26.01-54.79,34.04-81.42c8.08-26.63,12.95-51.99,16.1-74.12
						c0.7-5.54,1.38-10.88,2.02-16c0.57-5.12,0.84-10.04,1.3-14.68c1.04-9.28,1.19-17.62,1.75-24.76
						c1.72-28.59,1.58-54.49,1.15-77.45c-0.25-5.72-0.4-11.27-0.47-16.66c-0.12-5.37-0.56-10.5-0.68-15.5
						c-0.11-10.03-0.92-19.12-0.94-27.57c0.04-4.24-0.13-8.21-0.22-11.98c-0.06-3.78-0.02-7.37,0.13-10.77
						c0.43-6.83,0.66-12.66,1.55-17.69C2721.82,1804.79,2725.35,1798.23,2730.76,1796.08z"/>
				</g>
				<g>
					<radialGradient id="SVGID_4_" cx="2942.1787" cy="2115.8674" r="198.6487" gradientUnits="userSpaceOnUse">
						<stop  offset="0.0696" style="stop-color:#CB9641"/>
						<stop  offset="0.5023" style="stop-color:#EDBF81"/>
						<stop  offset="1" style="stop-color:#C08329"/>
					</radialGradient>
					<path class="st3" d="M3137.92,1927.11c10.46,4.93,13.89,22.19,8.35,49.19c-6,26.62-21.58,62.8-50.18,101.36
						c-14.38,19.14-41.08,48.73-75.7,78.56c-34.52,29.94-77.09,59.65-119.31,82.99c-42.1,23.63-83.82,40.62-114.72,51.19
						c-7.76,2.59-14.63,5.29-20.96,7.02c-6.27,1.83-11.69,3.41-16.13,4.7c-8.85,2.56-13.81,3.99-13.81,3.99s4.45-2.63,12.39-7.33
						c3.95-2.33,8.77-5.17,14.34-8.46c5.6-3.16,11.61-7.46,18.38-11.77c26.95-17.44,62.24-43.02,96.11-73.76
						c34.07-30.51,66.75-65.76,92.8-98.33c26.17-32.54,46.01-62.03,58.92-79.16c25.54-34.45,46.92-61.81,65.43-79.45
						C3111.78,1930.01,3127.31,1922.1,3137.92,1927.11z"/>
				</g>
				<g>
					<radialGradient id="SVGID_5_" cx="2916.2402" cy="2016.0726" r="108.8388" gradientUnits="userSpaceOnUse">
						<stop  offset="0.0696" style="stop-color:#CB9641"/>
						<stop  offset="0.5023" style="stop-color:#EDBF81"/>
						<stop  offset="1" style="stop-color:#C08329"/>
					</radialGradient>
					<path class="st4" d="M2951.27,1878.22c11.59,0.78,21.58,8.98,27.75,23.94c5.95,14.85,7.81,36.5,2.15,61.86
						c-2.89,12.63-10.63,32.89-22.22,54.89c-11.54,22.03-27.05,45.61-43.34,66.1c-16.2,20.59-33.22,38-46.14,50.01
						c-6.35,6.09-11.88,10.74-15.66,13.97c-3.78,3.22-5.9,5.02-5.9,5.02s1.07-2.57,2.97-7.16c1.9-4.57,4.7-11.07,7.65-19.2
						c6.14-16.09,13.54-38.12,19.4-61.64c5.99-23.49,10.53-48.34,13.57-69.9c3.09-21.58,4.87-39.84,7.34-50.58
						c4.79-21.47,11.81-38.26,20.88-49.94C2928.55,1883.93,2939.61,1877.43,2951.27,1878.22z"/>
				</g>
				<g>
					<radialGradient id="SVGID_6_" cx="3148.9873" cy="2159.4209" r="130.2255" gradientUnits="userSpaceOnUse">
						<stop  offset="0.0696" style="stop-color:#CB9641"/>
						<stop  offset="0.5023" style="stop-color:#EDBF81"/>
						<stop  offset="1" style="stop-color:#C08329"/>
					</radialGradient>
					<path class="st5" d="M3290.93,2061.3c9.87,6.06,13.95,19.47,10.23,38.45c-4.01,18.63-16.32,42.64-39.03,65.78
						c-11.39,11.45-32.67,28.06-59.48,43.18c-26.75,15.22-59,28.56-90.01,37.18c-30.98,8.86-60.64,12.81-82.14,14.22
						c-10.72,0.96-19.53,0.91-25.6,0.96c-6.04,0.04-9.43,0.07-9.43,0.07s3.14-1.3,8.73-3.62c5.57-2.31,13.58-5.46,22.99-10.17
						c18.93-8.91,43.72-22.5,67.55-39.66c23.96-16.99,46.94-37.2,65.32-56.02c18.47-18.8,32.54-35.92,41.96-45.34
						c18.63-19,35.23-33.02,50.44-41.02C3267.24,2057.13,3280.96,2055.17,3290.93,2061.3z"/>
				</g>
				<g>
					<radialGradient id="SVGID_7_" cx="3234.0007" cy="2314.2449" r="89.2286" gradientUnits="userSpaceOnUse">
						<stop  offset="0.0696" style="stop-color:#CB9641"/>
						<stop  offset="0.5023" style="stop-color:#EDBF81"/>
						<stop  offset="1" style="stop-color:#C08329"/>
					</radialGradient>
					<path class="st6" d="M3334.81,2357.83c-5.36,2.27-11.09,3.14-16.48,3.48c-5.55,0.37-10.76,0.23-15.78-0.08
						c-10.08-0.63-18.78-2.56-29.92-8.11c-5.39-2.69-15.14-9.31-30.51-16.4c-15.13-7.08-36.11-15.27-54.7-23.59
						c-37.59-16.5-70.41-32.26-70.41-32.26s36.05-5.09,76.87-9.43c20.57-2.01,41.33-4.62,62.49-4.47
						c10.49,0.11,20.83,1.07,30.06,2.91c9.23,1.83,17.26,4.51,23.22,7.42c11.77,5.73,21.42,13.56,28.31,22.18
						c6.92,8.58,11.05,17.82,12.44,26.12c1.44,8.31,0.13,15.6-2.74,20.93C3344.66,2351.99,3340.17,2355.56,3334.81,2357.83z"/>
				</g>
				<g>
					<radialGradient id="SVGID_8_" cx="3414.9153" cy="2287.7881" r="89.5567" gradientUnits="userSpaceOnUse">
						<stop  offset="0.0696" style="stop-color:#CB9641"/>
						<stop  offset="0.5023" style="stop-color:#EDBF81"/>
						<stop  offset="1" style="stop-color:#C08329"/>
					</radialGradient>
					<path class="st7" d="M3344.09,2385.79c0,0,1.68,0.65,4.79,1.84c3.15,1.14,7.87,2.58,14.1,3.72
						c12.32,2.17,31.28,2.83,52.41-4.93c10.49-3.85,21.41-9.77,31.52-18.2c10.21-8.37,19.05-19.56,25.72-32.07
						c6.68-12.55,10.84-26.64,12.5-41c1.46-14.38,0.31-29.09-3.7-42.76c-4.05-13.68-10.65-25.48-18.04-34.68
						c-7.41-9.26-15.62-16.15-23.59-21.24c-7.99-5.09-15.75-8.46-22.9-10.48c-7.1-2.14-13.61-2.9-19.18-3.17
						c-11.25-0.36-19.04,2.14-23.77,3.98c-4.79,2.13-6.76,3.69-6.76,3.69s1.87,1.96,5.56,5c3.64,3.29,9.06,7.63,15.41,13.7
						c6.3,6.11,13.7,13.6,20.89,23.25c7.23,9.68,14.18,21.15,18.55,35.73c2.17,7.42,3.52,15.57,3.92,24.07
						c0.19,8.48-0.48,17.33-2.64,25.83c-2.18,8.48-5.36,16.74-10.09,24.07c-4.66,7.41-10.57,14.15-17.03,19.76
						c-6.46,5.63-13.48,10.11-20.22,13.51c-6.77,3.38-13.27,5.61-18.86,7.18c-5.6,1.48-10.29,2.26-13.53,2.65
						C3345.87,2385.6,3344.09,2385.79,3344.09,2385.79z"/>
				</g>
				<g>
					<radialGradient id="SVGID_9_" cx="3550.3633" cy="2283.9512" r="108.101" gradientUnits="userSpaceOnUse">
						<stop  offset="0.0696" style="stop-color:#CB9641"/>
						<stop  offset="0.5023" style="stop-color:#EDBF81"/>
						<stop  offset="1" style="stop-color:#C08329"/>
					</radialGradient>
					<path class="st8" d="M3466.77,2410.17c0,0,1.91,0.26,5.44,0.73c1.78,0.19,4,0.58,6.59,0.73c2.62,0.09,5.61,0.2,8.95,0.32
						c3.36,0.03,7.04-0.27,11.12-0.47c4.04-0.32,8.35-1.02,13.04-1.69c9.13-1.91,19.6-4.36,30.2-9
						c10.62-4.52,21.87-10.37,32.44-18.37c10.6-7.92,20.81-17.62,29.65-29c8.9-11.31,16.2-24.52,21.22-38.49
						c5.05-13.95,7.81-28.52,8.43-42.6c0.54-14.11-1.21-26.98-3.88-38.4c-1.56-5.67-3.01-11.06-5.09-15.99
						c-0.99-2.47-1.9-4.89-2.96-7.19c-1.14-2.25-2.25-4.45-3.34-6.6c-9.04-16.96-19.95-27.92-29.15-34.9
						c-2.35-1.73-4.55-3.26-6.61-4.6c-2.19-1.25-4.22-2.32-6.09-3.25c-1.88-0.93-3.58-1.72-5.15-2.36
						c-1.64-0.58-3.12-1.05-4.43-1.44c-5.23-1.52-7.86-1.66-7.86-1.66s0.32,2.8,1.6,7.8c0.34,1.23,0.71,2.6,1.14,4.13
						c0.38,1.55,0.8,3.25,1.25,5.11c0.48,1.83,1.02,3.76,1.63,5.8c0.49,2.14,1.04,4.39,1.67,6.74c2.39,9.47,5.27,21,7.59,34.99
						c0.3,1.74,0.6,3.51,0.91,5.33c0.23,1.83,0.47,3.7,0.71,5.61c0.65,3.77,0.82,7.79,1.33,11.89c0.55,8.27,1.05,17.17,0.68,26.79
						c-0.92,19.21-4.49,39.12-13.54,57.9c-4.44,9.36-9.96,18.37-16.18,26.65c-6.18,8.36-13.36,15.61-20.53,22.14
						c-7.15,6.64-14.79,11.7-21.81,16.32c-3.61,2.02-7.04,4.11-10.35,5.79c-3.34,1.56-6.44,3.19-9.35,4.41
						c-2.96,1.17-5.61,2.23-7.94,3.15c-2.35,0.9-4.42,1.43-6.1,2C3468.62,2409.59,3466.77,2410.17,3466.77,2410.17z"/>
				</g>
				<g>
					<radialGradient id="SVGID_10_" cx="3714.4333" cy="2430.7615" r="106.2158" gradientUnits="userSpaceOnUse">
						<stop  offset="0.0696" style="stop-color:#CB9641"/>
						<stop  offset="0.5023" style="stop-color:#EDBF81"/>
						<stop  offset="1" style="stop-color:#C08329"/>
					</radialGradient>
					<path class="st9" d="M3566.89,2444.8c0,0,6.73,0.64,17.97,1.4c5.61,0.44,12.36,0.96,19.99,1.55
						c7.59,0.64,16.05,1.35,25.13,2.11c36.29,2.84,81.56,7.82,121.14,8.87c39.58,1.18,66.86-2.94,84.78-7.83
						c8.95-2.55,15.45-5.02,19.74-7.13c4.29-2.06,6.33-3.55,6.33-3.55s-1.52-1.98-5.1-5.13c-3.6-3.09-9.24-7.59-17.62-12.03
						c-16.65-9.08-44.45-19.14-86.7-20.39c-42.26-1.13-89.97,8.1-125.64,19.32c-8.96,2.64-17.17,5.65-24.49,8.18
						c-7.29,2.75-13.68,5.22-18.95,7.37C3572.97,2441.99,3566.89,2444.8,3566.89,2444.8z"/>
				</g>
				<g>
					<radialGradient id="SVGID_11_" cx="3713.1829" cy="2300.4209" r="98.9445" gradientUnits="userSpaceOnUse">
						<stop  offset="0.0696" style="stop-color:#CB9641"/>
						<stop  offset="0.5023" style="stop-color:#EDBF81"/>
						<stop  offset="1" style="stop-color:#C08329"/>
					</radialGradient>
					<path class="st10" d="M3615.78,2400.88c0,0,24.42-8.27,56.9-22.08c16.26-7,34.38-14.89,53.05-25.07
						c18.56-10.17,37.57-23.18,52.7-39.61c15.28-16.44,24.38-34.25,28.64-49.72c4.31-15.6,4.16-28.9,2.2-38.74
						c-1.89-9.88-5.48-16.37-8.08-20.28c-2.79-3.92-4.61-5.44-4.61-5.44s-1.68,1.91-4.15,5.58c-2.44,3.51-6.04,8.69-10.82,15.55
						c-4.6,6.57-10.36,14.27-17.42,23.33c-7.16,9.1-15.63,19.43-26.96,31.66c-11.36,12.37-24.94,25.75-39.26,39.33
						c-14.29,13.52-28.98,27.58-41.16,40.28C3632.26,2381.05,3615.78,2400.88,3615.78,2400.88z"/>
				</g>
				<g>
					<radialGradient id="SVGID_12_" cx="2814.6682" cy="2490.8149" r="90.0044" gradientUnits="userSpaceOnUse">
						<stop  offset="0.0696" style="stop-color:#CB9641"/>
						<stop  offset="0.5023" style="stop-color:#EDBF81"/>
						<stop  offset="1" style="stop-color:#C08329"/>
					</radialGradient>
					<path class="st11" d="M2690.52,2489.77c0,0,22.3,7.15,53.4,14.35c15.55,3.6,33.3,7.21,51.56,9.96
						c9.13,1.37,18.39,2.52,27.56,3.34c9.11,0.84,18.47,1.28,26.73,1.42c16.72,0.23,29.35-0.24,39.8-0.71
						c10.32-0.38,18.57-0.85,25.65-0.88c7.04-0.06,12.92,0.19,17.04,0.41c4.09,0.28,6.53,0.2,6.53,0.2s0.21-2.23-0.63-6.68
						c-0.9-4.37-3.22-10.96-9.23-18.4c-5.94-7.41-15.83-15.26-29.38-20.92c-13.46-5.59-30.3-8.86-48.77-9.1
						c-9.33-0.15-18.16,0.29-27.41,0.98c-9.18,0.71-18.46,1.75-27.6,3.01c-18.29,2.52-36.08,5.91-51.68,9.32
						C2712.91,2482.9,2690.52,2489.77,2690.52,2489.77z"/>
				</g>
				<g>
					<radialGradient id="SVGID_13_" cx="3236.446" cy="2509.5073" r="148.36" gradientUnits="userSpaceOnUse">
						<stop  offset="0.0696" style="stop-color:#CB9641"/>
						<stop  offset="0.5023" style="stop-color:#EDBF81"/>
						<stop  offset="1" style="stop-color:#C08329"/>
					</radialGradient>
					<path class="st12" d="M3443.7,2540.01c0,0-1.49-2-4.25-5.7c-1.42-1.83-3.29-3.97-5.44-6.54c-2.31-2.4-4.8-5.35-7.97-8.24
						c-12.22-11.91-32.47-26.77-60.31-35.52c-13.84-4.25-29.61-6.9-45.95-6.73c-16.34,0.05-33.12,2.52-49.49,6.22
						c-32.82,7.47-64.1,19.29-93.16,25.85c-28.91,6.91-53.28,7.58-73.01,4.77c-19.71-2.81-34.59-9.05-45.59-15.15
						c-10.99-6.15-18.12-12.11-22.69-16.09c-2.27-2.02-3.93-3.54-4.99-4.58c-1.1-1-1.64-1.49-1.64-1.49s0.21,0.71,0.62,2.13
						c0.42,1.46,1.18,3.62,2.48,6.53c2.62,5.74,7.5,14.66,17.77,24.69c10.17,9.88,26.21,20.93,49.17,27.11
						c22.76,6.23,52.14,7.11,84.17-0.59c32.08-7.35,62.96-20.97,92.98-30.32c15.02-4.7,29.9-8.34,44.4-9.94
						c14.5-1.7,28.51-1.03,41.59,1.21c26.15,4.68,47.36,15.67,60.87,25.29c3.49,2.3,6.33,4.74,8.97,6.72
						c2.47,2.15,4.67,3.94,6.35,5.49C3441.89,2538.3,3443.7,2540.01,3443.7,2540.01z"/>
				</g>
				<g>
					<radialGradient id="SVGID_14_" cx="2385.7148" cy="2512.6016" r="223.8618" gradientUnits="userSpaceOnUse">
						<stop  offset="0.0696" style="stop-color:#CB9641"/>
						<stop  offset="0.5023" style="stop-color:#EDBF81"/>
						<stop  offset="1" style="stop-color:#C08329"/>
					</radialGradient>
					<path class="st13" d="M2071.52,2528.52c0,0,3.38-1.1,9.64-3.12c6.25-1.97,15.48-4.54,27.2-7.01c11.75-2.34,26-4.6,42.24-5.81
						c16.24-1.24,34.44-1.44,53.96-0.43c19.52,1,40.35,3.2,61.94,6.33c21.57,3.1,43.96,7.28,66.74,11.53
						c45.51,8.6,92.98,17.73,138.75,20.52c22.83,1.38,44.15,1.15,63.55-0.64c19.41-1.76,36.94-4.95,52.54-9
						c15.6-4.02,29.27-8.89,41.02-14.22c11.83-5.12,21.65-10.88,29.99-16.06c16.59-10.69,26.39-20.68,32.57-26.96
						c5.88-6.7,8.27-9.87,8.27-9.87s-3.61,1.91-11.01,6.44c-7.68,4.13-19.16,10.94-36.37,17.98c-8.67,3.37-18.53,7.22-30.11,10.49
						c-11.49,3.48-24.6,6.57-39.37,9.07c-29.57,5.11-65.74,7.54-109.36,4.77c-43.65-2.63-90.5-9.83-136.76-15.9
						c-23.14-2.98-46.09-5.69-68.4-7.22c-22.28-1.56-43.82-2.04-63.9-1.29c-20.08,0.73-38.7,2.73-55.14,5.64
						c-16.45,2.89-30.67,6.72-42.26,10.38c-11.56,3.79-20.5,7.42-26.5,10.12C2074.75,2527.03,2071.52,2528.52,2071.52,2528.52z"/>
				</g>
				<g>
					<radialGradient id="SVGID_15_" cx="2897.2676" cy="2371.6326" r="96.6823" gradientUnits="userSpaceOnUse">
						<stop  offset="0.0696" style="stop-color:#CB9641"/>
						<stop  offset="0.5023" style="stop-color:#EDBF81"/>
						<stop  offset="1" style="stop-color:#C08329"/>
					</radialGradient>
					<path class="st14" d="M2818.66,2368.39c-12.06,3.97-23.45,10.57-32.34,19.58c-8.88,8.95-15.3,20.61-16.64,32.83
						c3.65-11.73,11.2-21.45,20.3-28.79c9.19-7.36,19.88-12.38,31.17-15.24c22.73-5.85,46.76-4.06,71.02-2.77
						c12.18,0.62,24.57,1.11,37.08,0.22c12.48-0.85,25.11-3.25,36.9-7.62c23.62-8.59,44.6-24.08,58.7-44.13
						c-17.61,16.94-38.77,29.27-61.43,35.79c-11.32,3.34-22.93,4.95-34.75,5.39c-11.82,0.46-23.8-0.18-35.93-0.79
						c-12.12-0.62-24.46-1.25-36.93-0.7C2843.38,2362.7,2830.73,2364.34,2818.66,2368.39z"/>
				</g>
				<g>
					<radialGradient id="SVGID_16_" cx="3060.032" cy="2429.1782" r="93.666" gradientUnits="userSpaceOnUse">
						<stop  offset="0.0696" style="stop-color:#CB9641"/>
						<stop  offset="0.5023" style="stop-color:#EDBF81"/>
						<stop  offset="1" style="stop-color:#C08329"/>
					</radialGradient>
					<path class="st15" d="M3036.69,2388.58c-35.93,6.41-70.63,19.47-101.18,38.71c32.74-15.14,67.27-25.48,102.52-30.06
						c17.61-2.28,35.37-3.18,53.05-2.66c8.85,0.22,17.67,0.95,26.46,1.86c8.75,0.99,17.32,2.4,25.31,5
						c7.89,2.6,15.42,6.55,20.86,12.06c5.46,5.61,9.39,13.01,10.18,20.52c0.37,3.74-0.05,7.45-1.33,10.86
						c-1.35,3.45-3.46,6.57-6.26,9.17c-5.61,5.22-13.61,8.38-21.94,10.15c-8.39,1.86-17.12,2.47-26.05,2.75
						c-8.85,0.29-17.65,0.13-26.1-1.67c-4.2-0.93-8.37-2.24-12.19-4.12c-3.82-1.92-7.39-4.42-10.53-7.42
						c-3.1-3.03-5.75-6.57-7.64-10.54c-1.85-3.98-2.84-8.41-2.7-12.93c-0.72,4.45-0.29,9.15,1.17,13.54
						c1.5,4.38,3.9,8.46,6.91,12.04c3.04,3.55,6.65,6.64,10.67,9.13c4.07,2.47,8.44,4.24,12.93,5.61
						c9.02,2.67,18.38,3.45,27.49,3.69c9.05,0.25,18.41,0.13,27.71-1.47c9.23-1.58,18.9-4.64,26.84-11.45
						c3.92-3.39,7.14-7.78,9.19-12.67c2.05-4.96,2.78-10.41,2.36-15.63c-0.92-10.49-5.87-19.91-12.82-27.24
						c-7.21-7.41-16.17-11.95-25.29-14.99c-9.16-2.97-18.47-4.4-27.6-5.34c-9.13-0.84-18.28-1.45-27.44-1.47
						C3072.97,2383.86,3054.67,2385.41,3036.69,2388.58z"/>
				</g>
				<g>
					<radialGradient id="SVGID_17_" cx="3343.741" cy="2431.1379" r="85.3763" gradientUnits="userSpaceOnUse">
						<stop  offset="0.0696" style="stop-color:#CB9641"/>
						<stop  offset="0.5023" style="stop-color:#EDBF81"/>
						<stop  offset="1" style="stop-color:#C08329"/>
					</radialGradient>
					<path class="st16" d="M3278.56,2409.61c-11.34-0.99-22.8,0.94-32.84,5.96c-4.99,2.52-9.6,5.87-13.27,10.04
						c-3.67,4.15-6.31,9.15-7.48,14.37c4.55-9.8,13.44-16.13,22.89-19.39c9.52-3.31,19.88-3.97,29.56-2.31
						c19.9,3.44,37.97,14.42,58.17,22.47c20.33,8.08,42.2,12.2,63.93,12.16c21.71-0.06,43.41-4.18,62.97-12.81
						c-20.93,4.17-41.94,5.65-62.65,4.05c-20.69-1.57-40.99-6.18-60.13-13.76c-9.6-3.81-19.17-8.36-29.24-12.35
						C3300.43,2414.07,3289.77,2410.67,3278.56,2409.61z"/>
				</g>
				<g>
					<radialGradient id="SVGID_18_" cx="2616.7197" cy="2397.6721" r="146.3802" gradientUnits="userSpaceOnUse">
						<stop  offset="0.0696" style="stop-color:#CB9641"/>
						<stop  offset="0.5023" style="stop-color:#EDBF81"/>
						<stop  offset="1" style="stop-color:#C08329"/>
					</radialGradient>
					<path class="st17" d="M2523.08,2446.58c-34.32,5.81-69.69,5.88-104.63,0.35c33.95,10.07,70.32,12.58,105.87,8.31
						c35.57-4.29,70.47-15.46,101.93-32.99c31.46-17.57,58.64-40.36,88.92-57.43c15.07-8.51,31.08-15.5,47.92-19.65
						c16.78-4.14,34.55-5.33,51.88-1.52c-16.69-6.08-35.26-6.8-52.98-3.86c-17.8,2.92-34.9,9.22-50.95,17.28
						c-32.11,16.24-59.96,38.57-90.22,55.43C2590.6,2429.35,2557.39,2440.81,2523.08,2446.58z"/>
				</g>
				<g>
					<radialGradient id="SVGID_19_" cx="2263.0842" cy="2479.9827" r="124.385" gradientUnits="userSpaceOnUse">
						<stop  offset="0.0696" style="stop-color:#CB9641"/>
						<stop  offset="0.5023" style="stop-color:#EDBF81"/>
						<stop  offset="1" style="stop-color:#C08329"/>
					</radialGradient>
					<path class="st18" d="M2172.95,2470.52c-29.27,5.72-57.93,14.47-84.92,26.73c28.56-7.9,57.31-14.16,86.35-18.1
						c29.02-3.99,58.25-5.54,87.53-5.25c29.28,0.23,58.6,2.23,87.94,4.78c29.35,2.54,58.73,5.76,88.29,7.91
						c-28.86-6.74-57.92-12.35-87.28-16.63c-29.35-4.2-59.03-7-88.86-7.22C2232.21,2462.45,2202.23,2464.82,2172.95,2470.52z"/>
				</g>
				<g>
					<radialGradient id="SVGID_20_" cx="2886.6807" cy="2467.6519" r="69.5458" gradientUnits="userSpaceOnUse">
						<stop  offset="0.0696" style="stop-color:#CB9641"/>
						<stop  offset="0.5023" style="stop-color:#EDBF81"/>
						<stop  offset="1" style="stop-color:#C08329"/>
					</radialGradient>
					<path class="st19" d="M2847.39,2428.2c-18.01,1.82-35.62,7.46-50.52,17.09c16.84-5.4,33.95-8.29,50.99-8.36
						c17.02-0.09,33.9,2.58,49.77,8.1c15.86,5.53,30.76,13.9,44.05,24.53c13.32,10.62,24.96,23.5,34.82,38.18
						c-5.7-16.8-16.02-32.16-29.02-44.75c-13.03-12.59-28.88-22.48-46.19-28.48C2883.98,2428.48,2865.42,2426.4,2847.39,2428.2z"/>
				</g>
				<g>
					<radialGradient id="SVGID_21_" cx="2612.1816" cy="2470.7329" r="93.0755" gradientUnits="userSpaceOnUse">
						<stop  offset="0.0696" style="stop-color:#CB9641"/>
						<stop  offset="0.5023" style="stop-color:#EDBF81"/>
						<stop  offset="1" style="stop-color:#C08329"/>
					</radialGradient>
					<path class="st20" d="M2550.62,2494.15c-21.76,2.27-43.87,1.7-66.07-1.31c21.13,7.52,43.94,10.66,66.66,10.03
						c22.73-0.76,45.42-5.41,66.75-13.68c10.65-4.12,20.95-9.38,30.65-15.04c9.73-5.64,19.09-11.56,28.69-16.78
						c9.57-5.27,19.45-9.74,29.94-12.63c10.43-2.92,21.47-4.09,32.57-2.38c-10.5-3.99-22.36-4.71-33.68-3
						c-11.38,1.63-22.4,5.44-32.73,10.14c-10.37,4.69-20.18,10.19-29.93,15.38c-9.74,5.22-19.43,9.96-29.57,13.9
						C2593.66,2486.66,2572.37,2491.81,2550.62,2494.15z"/>
				</g>
				<g>
					<radialGradient id="SVGID_22_" cx="2966.5515" cy="2301.9795" r="68.9234" gradientUnits="userSpaceOnUse">
						<stop  offset="0.0696" style="stop-color:#CB9641"/>
						<stop  offset="0.5023" style="stop-color:#EDBF81"/>
						<stop  offset="1" style="stop-color:#C08329"/>
					</radialGradient>
					<path class="st21" d="M2912,2292.91c-15.64,7.18-29.76,17.53-40.54,30.5c13.87-9.52,28.46-17.16,43.79-22.38
						c7.64-2.64,15.51-4.48,23.4-6.08c7.95-1.39,15.96-2.39,24.05-2.91c16.18-0.97,32.56-0.46,49.04,0.75
						c16.49,1.1,33.08,2.92,49.9,3.68c-15.96-5.33-32.21-9.54-48.85-12.39c-16.61-2.88-33.69-4.22-50.81-3.17
						c-8.56,0.56-17.1,1.82-25.51,3.71C2928.11,2286.73,2919.84,2289.31,2912,2292.91z"/>
				</g>
				<g>
					<radialGradient id="SVGID_23_" cx="3170.3738" cy="2353.116" r="67.0469" gradientUnits="userSpaceOnUse">
						<stop  offset="0.0696" style="stop-color:#CB9641"/>
						<stop  offset="0.5023" style="stop-color:#EDBF81"/>
						<stop  offset="1" style="stop-color:#C08329"/>
					</radialGradient>
					<path class="st22" d="M3125.63,2333.11c-8.08-0.43-16.2-0.37-24.24,0.36c-8.04,0.84-15.99,2.4-23.63,4.77
						c8.02-0.09,15.89,0.13,23.69,0.68c7.81,0.67,15.53,1.63,23.21,2.88c15.35,2.59,30.5,6.26,45.67,10.26
						c15.16,4.02,30.41,8.29,45.85,12c15.44,3.69,30.97,7.05,46.83,9.33c-14.53-6.74-29.38-12.41-44.33-17.74
						c-14.95-5.27-30.02-10.28-45.51-14.38C3157.69,2337.2,3141.78,2334.14,3125.63,2333.11z"/>
				</g>
			</g>
			<g>
				<g>
					<radialGradient id="SVGID_24_" cx="1569.4388" cy="2010.7202" r="333.2628" gradientUnits="userSpaceOnUse">
						<stop  offset="0.0696" style="stop-color:#CB9641"/>
						<stop  offset="0.5023" style="stop-color:#EDBF81"/>
						<stop  offset="1" style="stop-color:#C08329"/>
					</radialGradient>
					<path class="st23" d="M1544.2,1583.18c-4.42-3.79-12.65-2.41-24.48,4.25c-5.87,3.36-12.89,7.84-19.91,14.26
						c-3.59,3.14-7.38,6.63-11.34,10.46c-1.97,1.94-4,3.93-6.08,5.99c-2.06,2.09-3.94,4.41-5.98,6.73
						c-7.94,9.43-17.04,19.95-25.16,32.63c-4.14,6.29-8.72,12.77-12.81,19.87c-4.02,7.13-8.13,14.6-12.31,22.4
						c-15.93,31.51-30.51,69.51-39.93,113.22c-2.16,10.96-4.97,23.66-6.42,38.16c-0.82,7.23-1.91,14.81-2.54,22.79
						c-0.43,8-0.88,16.34-1.35,25.01c-1.03,34.67,0.94,74.59,8.61,116.5c7.55,41.88,21.03,85.68,40.31,127.14
						c19.18,41.53,43.94,80.81,71.81,115.38c27.83,34.62,58.67,64.6,89.42,88.74c30.69,24.26,61.05,42.79,87.33,56.9
						c6.71,3.26,13.12,6.36,19.2,9.31c3.03,1.47,5.97,2.89,8.83,4.27c2.89,1.31,5.78,2.41,8.53,3.56c5.51,2.25,10.64,4.36,15.38,6.3
						c2.36,0.97,4.62,1.89,6.78,2.77c2.21,0.75,4.32,1.47,6.31,2.15c15.92,5.36,24.85,8.36,24.85,8.36s-8.4-4.19-23.39-11.68
						c-1.86-0.94-3.83-1.93-5.89-2.97c-2-1.16-4.1-2.38-6.3-3.65c-4.37-2.53-9.11-5.28-14.2-8.22c-2.52-1.49-5.18-2.93-7.83-4.6
						c-2.6-1.73-5.29-3.51-8.05-5.34c-5.5-3.65-11.3-7.5-17.37-11.53c-23.61-17.11-50.29-38.76-76.3-65.47
						c-26.09-26.59-51.27-58.34-72.92-93.37c-21.7-35-39.77-73.33-52.6-112.27c-12.93-38.94-20.42-78.33-23.35-115.39
						c-3.01-37.08-1.58-71.66,1.42-101.46c0.89-7.44,1.76-14.6,2.58-21.46c0.95-6.84,2.28-13.32,3.26-19.5
						c1.77-12.4,4.56-23.25,6.39-32.68c8.1-37.58,18.49-70.79,28.65-99.77c2.73-7.16,5.29-14.13,7.69-20.9
						c2.47-6.74,5.33-12.98,7.71-19.2c4.59-12.53,9.89-23.44,13.92-33.84c1.06-2.57,1.95-5.16,3.01-7.55c1.05-2.4,2.08-4.74,3.07-7
						c1.95-4.57,3.69-8.92,5.23-13.06c2.91-8.41,5.76-15.34,7.44-21.54C1548.85,1595.56,1548.62,1586.98,1544.2,1583.18z"/>
				</g>
				<g>
					<radialGradient id="SVGID_25_" cx="1388.3301" cy="2105.3472" r="258.1499" gradientUnits="userSpaceOnUse">
						<stop  offset="0.0696" style="stop-color:#CB9641"/>
						<stop  offset="0.5023" style="stop-color:#EDBF81"/>
						<stop  offset="1" style="stop-color:#C08329"/>
					</radialGradient>
					<path class="st24" d="M1269.24,1796.08c-5.41-2.15-12.24,0.37-20.25,7.63c-3.97,3.64-8.45,8.4-12.51,14.55
						c-2.1,3.05-4.25,6.4-6.44,10.04c-2.22,3.64-4.45,7.57-6.4,11.88c-4,8.59-8.5,18.27-11.89,29.29
						c-1.76,5.5-3.75,11.24-5.29,17.31c-1.49,6.08-2.96,12.44-4.39,19.06c-5.16,26.52-7.93,57.53-5.87,91.67
						c0.65,8.52,1.25,18.45,3.12,29.44c0.87,5.5,1.64,11.3,2.8,17.31c1.3,5.99,2.65,12.24,4.06,18.73
						c6.2,25.8,15.49,54.88,28.96,84.5c13.39,29.62,31.07,59.73,52.22,87.46c21.1,27.79,45.55,53.3,71.36,75.15
						c25.79,21.89,52.86,40.18,78.94,54.42c26.05,14.32,50.96,24.7,72.24,32.37c21.51,7.21,39.32,11.87,51.79,14.56
						c12.48,2.49,19.47,3.89,19.47,3.89s-6.6-2.64-18.38-7.35c-11.68-4.85-28.17-12.56-47.47-23.12
						c-19.09-11.01-40.89-25.02-62.85-42.57c-22-17.46-44-38.54-64.03-62.15c-20.06-23.59-38.1-49.74-52.78-76.75
						c-14.75-27.01-26.01-54.79-34.04-81.42c-8.08-26.63-12.95-51.99-16.1-74.12c-0.7-5.54-1.38-10.88-2.02-16
						c-0.57-5.12-0.84-10.04-1.3-14.68c-1.04-9.28-1.19-17.62-1.75-24.76c-1.72-28.59-1.58-54.49-1.15-77.45
						c0.25-5.72,0.4-11.27,0.47-16.66c0.12-5.37,0.56-10.5,0.68-15.5c0.11-10.03,0.92-19.12,0.94-27.57
						c-0.04-4.24,0.13-8.21,0.22-11.98c0.06-3.78,0.02-7.37-0.13-10.77c-0.43-6.83-0.66-12.66-1.55-17.69
						C1278.18,1804.79,1274.65,1798.23,1269.24,1796.08z"/>
				</g>
				<g>
					<radialGradient id="SVGID_26_" cx="1057.8214" cy="2115.8674" r="198.6487" gradientUnits="userSpaceOnUse">
						<stop  offset="0.0696" style="stop-color:#CB9641"/>
						<stop  offset="0.5023" style="stop-color:#EDBF81"/>
						<stop  offset="1" style="stop-color:#C08329"/>
					</radialGradient>
					<path class="st25" d="M862.08,1927.11c-10.46,4.93-13.89,22.19-8.35,49.19c6,26.62,21.58,62.8,50.18,101.36
						c14.38,19.14,41.08,48.73,75.7,78.56c34.52,29.94,77.09,59.65,119.31,82.99c42.1,23.63,83.82,40.62,114.72,51.19
						c7.76,2.59,14.63,5.29,20.96,7.02c6.27,1.83,11.69,3.41,16.13,4.7c8.85,2.56,13.81,3.99,13.81,3.99s-4.45-2.63-12.39-7.33
						c-3.95-2.33-8.77-5.17-14.34-8.46c-5.6-3.16-11.61-7.46-18.38-11.77c-26.95-17.44-62.24-43.02-96.11-73.76
						c-34.07-30.51-66.75-65.76-92.8-98.33c-26.17-32.54-46.01-62.03-58.92-79.16c-25.54-34.45-46.92-61.81-65.43-79.45
						C888.22,1930.01,872.69,1922.1,862.08,1927.11z"/>
				</g>
				<g>
					<radialGradient id="SVGID_27_" cx="1083.7599" cy="2016.0726" r="108.8388" gradientUnits="userSpaceOnUse">
						<stop  offset="0.0696" style="stop-color:#CB9641"/>
						<stop  offset="0.5023" style="stop-color:#EDBF81"/>
						<stop  offset="1" style="stop-color:#C08329"/>
					</radialGradient>
					<path class="st26" d="M1048.73,1878.22c-11.59,0.78-21.58,8.98-27.75,23.94c-5.95,14.85-7.81,36.5-2.15,61.86
						c2.89,12.63,10.63,32.89,22.22,54.89c11.54,22.03,27.05,45.61,43.34,66.1c16.2,20.59,33.22,38,46.14,50.01
						c6.35,6.09,11.88,10.74,15.66,13.97c3.78,3.22,5.9,5.02,5.9,5.02s-1.07-2.57-2.97-7.16c-1.9-4.57-4.7-11.07-7.65-19.2
						c-6.14-16.09-13.54-38.12-19.4-61.64c-5.99-23.49-10.53-48.34-13.57-69.9c-3.09-21.58-4.87-39.84-7.34-50.58
						c-4.79-21.47-11.81-38.26-20.88-49.94C1071.45,1883.93,1060.39,1877.43,1048.73,1878.22z"/>
				</g>
				<g>
					<radialGradient id="SVGID_28_" cx="851.0128" cy="2159.4209" r="130.2255" gradientUnits="userSpaceOnUse">
						<stop  offset="0.0696" style="stop-color:#CB9641"/>
						<stop  offset="0.5023" style="stop-color:#EDBF81"/>
						<stop  offset="1" style="stop-color:#C08329"/>
					</radialGradient>
					<path class="st27" d="M709.07,2061.3c-9.87,6.06-13.95,19.47-10.23,38.45c4.01,18.63,16.32,42.64,39.03,65.78
						c11.39,11.45,32.67,28.06,59.48,43.18c26.75,15.22,59,28.56,90.01,37.18c30.98,8.86,60.64,12.81,82.14,14.22
						c10.72,0.96,19.53,0.91,25.6,0.96c6.04,0.04,9.43,0.07,9.43,0.07s-3.14-1.3-8.73-3.62c-5.57-2.31-13.58-5.46-22.99-10.17
						c-18.93-8.91-43.72-22.5-67.55-39.66c-23.96-16.99-46.94-37.2-65.32-56.02c-18.47-18.8-32.54-35.92-41.96-45.34
						c-18.63-19-35.23-33.02-50.44-41.02C732.76,2057.13,719.04,2055.17,709.07,2061.3z"/>
				</g>
				<g>
					<radialGradient id="SVGID_29_" cx="765.9993" cy="2314.2449" r="89.2286" gradientUnits="userSpaceOnUse">
						<stop  offset="0.0696" style="stop-color:#CB9641"/>
						<stop  offset="0.5023" style="stop-color:#EDBF81"/>
						<stop  offset="1" style="stop-color:#C08329"/>
					</radialGradient>
					<path class="st28" d="M665.19,2357.83c5.36,2.27,11.09,3.14,16.48,3.48c5.55,0.37,10.76,0.23,15.78-0.08
						c10.08-0.63,18.78-2.56,29.92-8.11c5.39-2.69,15.14-9.31,30.51-16.4c15.13-7.08,36.11-15.27,54.7-23.59
						c37.59-16.5,70.41-32.26,70.41-32.26s-36.05-5.09-76.87-9.43c-20.57-2.01-41.33-4.62-62.49-4.47
						c-10.49,0.11-20.83,1.07-30.06,2.91c-9.23,1.83-17.26,4.51-23.22,7.42c-11.77,5.73-21.42,13.56-28.31,22.18
						c-6.92,8.58-11.05,17.82-12.44,26.12c-1.44,8.31-0.13,15.6,2.74,20.93C655.34,2351.99,659.83,2355.56,665.19,2357.83z"/>
				</g>
				<g>
					<radialGradient id="SVGID_30_" cx="585.0846" cy="2287.7881" r="89.5567" gradientUnits="userSpaceOnUse">
						<stop  offset="0.0696" style="stop-color:#CB9641"/>
						<stop  offset="0.5023" style="stop-color:#EDBF81"/>
						<stop  offset="1" style="stop-color:#C08329"/>
					</radialGradient>
					<path class="st29" d="M655.91,2385.79c0,0-1.68,0.65-4.79,1.84c-3.15,1.14-7.87,2.58-14.1,3.72
						c-12.32,2.17-31.28,2.83-52.41-4.93c-10.49-3.85-21.41-9.77-31.52-18.2c-10.21-8.37-19.05-19.56-25.72-32.07
						c-6.68-12.55-10.84-26.64-12.5-41c-1.46-14.38-0.31-29.09,3.7-42.76c4.05-13.68,10.64-25.48,18.04-34.68
						c7.41-9.26,15.62-16.15,23.59-21.24c7.99-5.09,15.75-8.46,22.9-10.48c7.1-2.14,13.61-2.9,19.18-3.17
						c11.25-0.36,19.04,2.14,23.77,3.98c4.79,2.13,6.76,3.69,6.76,3.69s-1.87,1.96-5.56,5c-3.64,3.29-9.06,7.63-15.41,13.7
						c-6.3,6.11-13.7,13.6-20.89,23.25c-7.23,9.68-14.18,21.15-18.55,35.73c-2.17,7.42-3.52,15.57-3.92,24.07
						c-0.19,8.48,0.48,17.33,2.64,25.83c2.18,8.48,5.36,16.74,10.09,24.07c4.66,7.41,10.57,14.15,17.03,19.76
						c6.46,5.63,13.48,10.11,20.22,13.51c6.77,3.38,13.27,5.61,18.86,7.18c5.6,1.48,10.29,2.26,13.53,2.65
						C654.13,2385.6,655.91,2385.79,655.91,2385.79z"/>
				</g>
				<g>
					<radialGradient id="SVGID_31_" cx="449.6366" cy="2283.9512" r="108.101" gradientUnits="userSpaceOnUse">
						<stop  offset="0.0696" style="stop-color:#CB9641"/>
						<stop  offset="0.5023" style="stop-color:#EDBF81"/>
						<stop  offset="1" style="stop-color:#C08329"/>
					</radialGradient>
					<path class="st30" d="M533.23,2410.17c0,0-1.91,0.26-5.44,0.73c-1.78,0.19-4,0.58-6.59,0.73c-2.62,0.09-5.61,0.2-8.95,0.32
						c-3.36,0.03-7.04-0.27-11.12-0.47c-4.04-0.32-8.35-1.02-13.04-1.69c-9.13-1.91-19.6-4.36-30.2-9
						c-10.62-4.52-21.87-10.37-32.44-18.37c-10.6-7.92-20.81-17.62-29.65-29c-8.9-11.31-16.2-24.52-21.22-38.49
						c-5.05-13.95-7.81-28.52-8.43-42.6c-0.54-14.11,1.21-26.98,3.88-38.4c1.56-5.67,3.01-11.06,5.09-15.99
						c0.99-2.47,1.9-4.89,2.96-7.19c1.14-2.25,2.25-4.45,3.34-6.6c9.04-16.96,19.95-27.92,29.15-34.9c2.35-1.73,4.55-3.26,6.61-4.6
						c2.19-1.25,4.22-2.32,6.09-3.25c1.88-0.93,3.58-1.72,5.15-2.36c1.64-0.58,3.12-1.05,4.43-1.44c5.23-1.52,7.86-1.66,7.86-1.66
						s-0.32,2.8-1.6,7.8c-0.34,1.23-0.71,2.6-1.14,4.13c-0.38,1.55-0.8,3.25-1.25,5.11c-0.48,1.83-1.02,3.76-1.63,5.8
						c-0.49,2.14-1.04,4.39-1.67,6.74c-2.39,9.47-5.27,21-7.59,34.99c-0.3,1.74-0.6,3.51-0.91,5.33c-0.23,1.83-0.47,3.7-0.71,5.61
						c-0.65,3.77-0.82,7.79-1.33,11.89c-0.55,8.27-1.05,17.17-0.68,26.79c0.92,19.21,4.49,39.12,13.54,57.9
						c4.44,9.36,9.96,18.37,16.18,26.65c6.18,8.36,13.36,15.61,20.53,22.14c7.15,6.64,14.79,11.7,21.8,16.32
						c3.61,2.02,7.04,4.11,10.35,5.79c3.34,1.56,6.44,3.19,9.35,4.41c2.96,1.17,5.61,2.23,7.94,3.15c2.35,0.9,4.42,1.43,6.1,2
						C531.38,2409.59,533.23,2410.17,533.23,2410.17z"/>
				</g>
				<g>
					<radialGradient id="SVGID_32_" cx="285.5667" cy="2430.7615" r="106.2158" gradientUnits="userSpaceOnUse">
						<stop  offset="0.0696" style="stop-color:#CB9641"/>
						<stop  offset="0.5023" style="stop-color:#EDBF81"/>
						<stop  offset="1" style="stop-color:#C08329"/>
					</radialGradient>
					<path class="st31" d="M433.11,2444.8c0,0-6.73,0.64-17.97,1.4c-5.61,0.44-12.36,0.96-19.99,1.55
						c-7.59,0.64-16.05,1.35-25.13,2.11c-36.29,2.84-81.56,7.82-121.14,8.87c-39.58,1.18-66.86-2.94-84.78-7.83
						c-8.95-2.55-15.45-5.02-19.74-7.13c-4.29-2.06-6.33-3.55-6.33-3.55s1.52-1.98,5.1-5.13c3.6-3.09,9.24-7.59,17.62-12.03
						c16.65-9.08,44.45-19.14,86.7-20.39c42.26-1.13,89.97,8.1,125.64,19.32c8.96,2.64,17.17,5.65,24.49,8.18
						c7.29,2.75,13.68,5.22,18.95,7.37C427.03,2441.99,433.11,2444.8,433.11,2444.8z"/>
				</g>
				<g>
					<radialGradient id="SVGID_33_" cx="286.8171" cy="2300.4209" r="98.9445" gradientUnits="userSpaceOnUse">
						<stop  offset="0.0696" style="stop-color:#CB9641"/>
						<stop  offset="0.5023" style="stop-color:#EDBF81"/>
						<stop  offset="1" style="stop-color:#C08329"/>
					</radialGradient>
					<path class="st32" d="M384.22,2400.88c0,0-24.42-8.27-56.9-22.08c-16.26-7-34.38-14.89-53.05-25.07
						c-18.56-10.17-37.57-23.18-52.7-39.61c-15.28-16.44-24.38-34.25-28.64-49.72c-4.31-15.6-4.16-28.9-2.2-38.74
						c1.89-9.88,5.48-16.37,8.08-20.28c2.79-3.92,4.61-5.44,4.61-5.44s1.68,1.91,4.15,5.58c2.44,3.51,6.04,8.69,10.82,15.55
						c4.6,6.57,10.36,14.27,17.42,23.33c7.16,9.1,15.63,19.43,26.96,31.66c11.36,12.37,24.94,25.75,39.26,39.33
						c14.29,13.52,28.98,27.58,41.16,40.28C367.74,2381.05,384.22,2400.88,384.22,2400.88z"/>
				</g>
				<g>
					<radialGradient id="SVGID_34_" cx="1185.3318" cy="2490.8149" r="90.0044" gradientUnits="userSpaceOnUse">
						<stop  offset="0.0696" style="stop-color:#CB9641"/>
						<stop  offset="0.5023" style="stop-color:#EDBF81"/>
						<stop  offset="1" style="stop-color:#C08329"/>
					</radialGradient>
					<path class="st33" d="M1309.48,2489.77c0,0-22.3,7.15-53.4,14.35c-15.55,3.6-33.3,7.21-51.56,9.96
						c-9.13,1.37-18.39,2.52-27.56,3.34c-9.11,0.84-18.47,1.28-26.73,1.42c-16.72,0.23-29.35-0.24-39.8-0.71
						c-10.32-0.38-18.57-0.85-25.65-0.88c-7.04-0.06-12.92,0.19-17.04,0.41c-4.09,0.28-6.53,0.2-6.53,0.2s-0.21-2.23,0.63-6.68
						c0.9-4.37,3.22-10.96,9.23-18.4c5.94-7.41,15.83-15.26,29.38-20.92c13.46-5.59,30.3-8.86,48.77-9.1
						c9.33-0.15,18.16,0.29,27.41,0.98c9.18,0.71,18.46,1.75,27.6,3.01c18.29,2.52,36.08,5.91,51.68,9.32
						C1287.09,2482.9,1309.48,2489.77,1309.48,2489.77z"/>
				</g>
				<g>
					<radialGradient id="SVGID_35_" cx="763.5539" cy="2509.5073" r="148.36" gradientUnits="userSpaceOnUse">
						<stop  offset="0.0696" style="stop-color:#CB9641"/>
						<stop  offset="0.5023" style="stop-color:#EDBF81"/>
						<stop  offset="1" style="stop-color:#C08329"/>
					</radialGradient>
					<path class="st34" d="M556.3,2540.01c0,0,1.49-2,4.25-5.7c1.42-1.83,3.29-3.97,5.44-6.54c2.31-2.4,4.8-5.35,7.97-8.24
						c12.22-11.91,32.47-26.77,60.31-35.52c13.84-4.25,29.61-6.9,45.95-6.73c16.34,0.05,33.12,2.52,49.49,6.22
						c32.82,7.47,64.1,19.29,93.16,25.85c28.91,6.91,53.28,7.58,73.01,4.77c19.71-2.81,34.59-9.05,45.59-15.15
						c10.99-6.15,18.12-12.11,22.69-16.09c2.27-2.02,3.93-3.54,4.99-4.58c1.1-1,1.64-1.49,1.64-1.49s-0.21,0.71-0.62,2.13
						c-0.42,1.46-1.18,3.62-2.48,6.53c-2.62,5.74-7.5,14.66-17.77,24.69c-10.17,9.88-26.21,20.93-49.17,27.11
						c-22.76,6.23-52.14,7.11-84.17-0.59c-32.08-7.35-62.96-20.97-92.98-30.32c-15.02-4.7-29.9-8.34-44.4-9.94
						c-14.5-1.7-28.51-1.03-41.59,1.21c-26.15,4.68-47.36,15.67-60.87,25.29c-3.49,2.3-6.33,4.74-8.97,6.72
						c-2.47,2.15-4.66,3.94-6.35,5.49C558.11,2538.3,556.3,2540.01,556.3,2540.01z"/>
				</g>
				<g>
					<radialGradient id="SVGID_36_" cx="1614.285" cy="2512.6016" r="223.8618" gradientUnits="userSpaceOnUse">
						<stop  offset="0.0696" style="stop-color:#CB9641"/>
						<stop  offset="0.5023" style="stop-color:#EDBF81"/>
						<stop  offset="1" style="stop-color:#C08329"/>
					</radialGradient>
					<path class="st35" d="M1928.48,2528.52c0,0-3.38-1.1-9.64-3.12c-6.25-1.97-15.48-4.54-27.2-7.01c-11.75-2.34-26-4.6-42.24-5.81
						c-16.24-1.24-34.44-1.44-53.96-0.43c-19.52,1-40.35,3.2-61.94,6.33c-21.57,3.1-43.96,7.28-66.74,11.53
						c-45.51,8.6-92.98,17.73-138.75,20.52c-22.83,1.38-44.15,1.15-63.55-0.64c-19.41-1.76-36.94-4.95-52.54-9
						c-15.6-4.02-29.27-8.89-41.02-14.22c-11.83-5.12-21.65-10.88-29.99-16.06c-16.59-10.69-26.39-20.68-32.57-26.96
						c-5.88-6.7-8.27-9.87-8.27-9.87s3.61,1.91,11.01,6.44c7.68,4.13,19.16,10.94,36.37,17.98c8.67,3.37,18.53,7.22,30.11,10.49
						c11.49,3.48,24.6,6.57,39.37,9.07c29.57,5.11,65.74,7.54,109.36,4.77c43.65-2.63,90.51-9.83,136.76-15.9
						c23.14-2.98,46.09-5.69,68.4-7.22c22.28-1.56,43.82-2.04,63.9-1.29c20.08,0.73,38.7,2.73,55.14,5.64
						c16.45,2.89,30.67,6.72,42.26,10.38c11.56,3.79,20.5,7.42,26.51,10.12C1925.25,2527.03,1928.48,2528.52,1928.48,2528.52z"/>
				</g>
				<g>
					<radialGradient id="SVGID_37_" cx="1102.7324" cy="2371.6326" r="96.6823" gradientUnits="userSpaceOnUse">
						<stop  offset="0.0696" style="stop-color:#CB9641"/>
						<stop  offset="0.5023" style="stop-color:#EDBF81"/>
						<stop  offset="1" style="stop-color:#C08329"/>
					</radialGradient>
					<path class="st36" d="M1181.34,2368.39c12.06,3.97,23.45,10.57,32.34,19.58c8.88,8.95,15.3,20.61,16.64,32.83
						c-3.65-11.73-11.2-21.45-20.3-28.79c-9.19-7.36-19.88-12.38-31.17-15.24c-22.73-5.85-46.76-4.06-71.02-2.77
						c-12.18,0.62-24.57,1.11-37.08,0.22c-12.48-0.85-25.11-3.25-36.9-7.62c-23.62-8.59-44.6-24.08-58.7-44.13
						c17.61,16.94,38.77,29.27,61.43,35.79c11.32,3.34,22.93,4.95,34.75,5.39c11.82,0.46,23.8-0.18,35.93-0.79
						c12.12-0.62,24.46-1.25,36.93-0.7C1156.62,2362.7,1169.27,2364.34,1181.34,2368.39z"/>
				</g>
				<g>
					<radialGradient id="SVGID_38_" cx="939.9679" cy="2429.1782" r="93.6661" gradientUnits="userSpaceOnUse">
						<stop  offset="0.0696" style="stop-color:#CB9641"/>
						<stop  offset="0.5023" style="stop-color:#EDBF81"/>
						<stop  offset="1" style="stop-color:#C08329"/>
					</radialGradient>
					<path class="st37" d="M963.31,2388.58c35.93,6.41,70.63,19.47,101.18,38.71c-32.74-15.14-67.27-25.48-102.52-30.06
						c-17.61-2.28-35.37-3.18-53.05-2.66c-8.85,0.22-17.67,0.95-26.46,1.86c-8.75,0.99-17.32,2.4-25.31,5
						c-7.89,2.6-15.42,6.55-20.86,12.06c-5.46,5.61-9.39,13.01-10.18,20.52c-0.37,3.74,0.05,7.45,1.33,10.86
						c1.35,3.45,3.46,6.57,6.26,9.17c5.61,5.22,13.61,8.38,21.94,10.15c8.39,1.86,17.12,2.47,26.05,2.75
						c8.85,0.29,17.65,0.13,26.1-1.67c4.2-0.93,8.37-2.24,12.19-4.12c3.82-1.92,7.39-4.42,10.53-7.42c3.1-3.03,5.75-6.57,7.64-10.54
						c1.85-3.98,2.84-8.41,2.7-12.93c0.72,4.45,0.29,9.15-1.17,13.54c-1.5,4.38-3.9,8.46-6.91,12.04
						c-3.04,3.55-6.65,6.64-10.67,9.13c-4.07,2.47-8.44,4.24-12.93,5.61c-9.02,2.67-18.38,3.45-27.49,3.69
						c-9.05,0.25-18.41,0.13-27.71-1.47c-9.23-1.58-18.9-4.64-26.84-11.45c-3.92-3.39-7.14-7.78-9.19-12.67
						c-2.05-4.96-2.78-10.41-2.36-15.63c0.92-10.49,5.87-19.91,12.82-27.24c7.21-7.41,16.17-11.95,25.29-14.99
						c9.16-2.97,18.47-4.4,27.6-5.34c9.13-0.84,18.28-1.45,27.44-1.47C927.03,2383.86,945.33,2385.41,963.31,2388.58z"/>
				</g>
				<g>
					<radialGradient id="SVGID_39_" cx="656.259" cy="2431.1379" r="85.3763" gradientUnits="userSpaceOnUse">
						<stop  offset="0.0696" style="stop-color:#CB9641"/>
						<stop  offset="0.5023" style="stop-color:#EDBF81"/>
						<stop  offset="1" style="stop-color:#C08329"/>
					</radialGradient>
					<path class="st38" d="M721.44,2409.61c11.34-0.99,22.8,0.94,32.84,5.96c4.99,2.52,9.6,5.87,13.26,10.04
						c3.67,4.15,6.31,9.15,7.48,14.37c-4.55-9.8-13.44-16.13-22.89-19.39c-9.52-3.31-19.88-3.97-29.56-2.31
						c-19.9,3.44-37.97,14.42-58.17,22.47c-20.33,8.08-42.2,12.2-63.93,12.16c-21.71-0.06-43.41-4.18-62.97-12.81
						c20.93,4.17,41.94,5.65,62.65,4.05c20.69-1.57,40.99-6.18,60.13-13.76c9.6-3.81,19.17-8.36,29.24-12.35
						C699.57,2414.07,710.23,2410.67,721.44,2409.61z"/>
				</g>
				<g>
					<radialGradient id="SVGID_40_" cx="1383.2803" cy="2397.6721" r="146.3802" gradientUnits="userSpaceOnUse">
						<stop  offset="0.0696" style="stop-color:#CB9641"/>
						<stop  offset="0.5023" style="stop-color:#EDBF81"/>
						<stop  offset="1" style="stop-color:#C08329"/>
					</radialGradient>
					<path class="st39" d="M1476.92,2446.58c34.32,5.81,69.69,5.88,104.63,0.35c-33.95,10.07-70.32,12.58-105.87,8.31
						c-35.57-4.29-70.47-15.46-101.93-32.99c-31.46-17.57-58.64-40.36-88.92-57.43c-15.07-8.51-31.08-15.5-47.92-19.65
						c-16.78-4.14-34.55-5.33-51.88-1.52c16.69-6.08,35.26-6.8,52.98-3.86c17.8,2.92,34.9,9.22,50.95,17.28
						c32.11,16.24,59.96,38.57,90.22,55.43C1409.4,2429.35,1442.61,2440.81,1476.92,2446.58z"/>
				</g>
				<g>
					<radialGradient id="SVGID_41_" cx="1736.9156" cy="2479.9827" r="124.385" gradientUnits="userSpaceOnUse">
						<stop  offset="0.0696" style="stop-color:#CB9641"/>
						<stop  offset="0.5023" style="stop-color:#EDBF81"/>
						<stop  offset="1" style="stop-color:#C08329"/>
					</radialGradient>
					<path class="st40" d="M1827.05,2470.52c29.27,5.72,57.93,14.47,84.92,26.73c-28.56-7.9-57.31-14.16-86.35-18.1
						c-29.02-3.99-58.25-5.54-87.53-5.25c-29.28,0.23-58.6,2.23-87.94,4.78c-29.35,2.54-58.73,5.76-88.29,7.91
						c28.86-6.74,57.92-12.35,87.28-16.63c29.36-4.2,59.03-7,88.86-7.22C1767.79,2462.45,1797.77,2464.82,1827.05,2470.52z"/>
				</g>
				<g>
					<radialGradient id="SVGID_42_" cx="1113.3193" cy="2467.6519" r="69.5458" gradientUnits="userSpaceOnUse">
						<stop  offset="0.0696" style="stop-color:#CB9641"/>
						<stop  offset="0.5023" style="stop-color:#EDBF81"/>
						<stop  offset="1" style="stop-color:#C08329"/>
					</radialGradient>
					<path class="st41" d="M1152.61,2428.2c18.01,1.82,35.62,7.46,50.52,17.09c-16.84-5.4-33.95-8.29-50.99-8.36
						c-17.02-0.09-33.9,2.58-49.77,8.1c-15.86,5.53-30.76,13.9-44.05,24.53c-13.32,10.62-24.96,23.5-34.82,38.18
						c5.7-16.8,16.02-32.16,29.02-44.75c13.03-12.59,28.88-22.48,46.19-28.48C1116.02,2428.48,1134.58,2426.4,1152.61,2428.2z"/>
				</g>
				<g>
					<radialGradient id="SVGID_43_" cx="1387.8184" cy="2470.7329" r="93.0755" gradientUnits="userSpaceOnUse">
						<stop  offset="0.0696" style="stop-color:#CB9641"/>
						<stop  offset="0.5023" style="stop-color:#EDBF81"/>
						<stop  offset="1" style="stop-color:#C08329"/>
					</radialGradient>
					<path class="st42" d="M1449.38,2494.15c21.76,2.27,43.87,1.7,66.07-1.31c-21.13,7.52-43.94,10.66-66.66,10.03
						c-22.73-0.76-45.42-5.41-66.75-13.68c-10.65-4.12-20.95-9.38-30.65-15.04c-9.73-5.64-19.09-11.56-28.69-16.78
						c-9.57-5.27-19.45-9.74-29.94-12.63c-10.43-2.92-21.47-4.09-32.57-2.38c10.5-3.99,22.36-4.71,33.68-3
						c11.38,1.63,22.4,5.44,32.73,10.14c10.37,4.69,20.18,10.19,29.93,15.38c9.74,5.22,19.43,9.96,29.57,13.9
						C1406.34,2486.66,1427.63,2491.81,1449.38,2494.15z"/>
				</g>
				<g>
					<radialGradient id="SVGID_44_" cx="1033.4485" cy="2301.9795" r="68.9234" gradientUnits="userSpaceOnUse">
						<stop  offset="0.0696" style="stop-color:#CB9641"/>
						<stop  offset="0.5023" style="stop-color:#EDBF81"/>
						<stop  offset="1" style="stop-color:#C08329"/>
					</radialGradient>
					<path class="st43" d="M1088,2292.91c15.64,7.18,29.76,17.53,40.54,30.5c-13.87-9.52-28.46-17.16-43.79-22.38
						c-7.64-2.64-15.51-4.48-23.4-6.08c-7.95-1.39-15.96-2.39-24.05-2.91c-16.18-0.97-32.56-0.46-49.04,0.75
						c-16.49,1.1-33.08,2.92-49.9,3.68c15.96-5.33,32.21-9.54,48.85-12.39c16.61-2.88,33.69-4.22,50.81-3.17
						c8.56,0.56,17.1,1.82,25.51,3.71C1071.89,2286.73,1080.16,2289.31,1088,2292.91z"/>
				</g>
				<g>
					<radialGradient id="SVGID_45_" cx="829.6263" cy="2353.116" r="67.0469" gradientUnits="userSpaceOnUse">
						<stop  offset="0.0696" style="stop-color:#CB9641"/>
						<stop  offset="0.5023" style="stop-color:#EDBF81"/>
						<stop  offset="1" style="stop-color:#C08329"/>
					</radialGradient>
					<path class="st44" d="M874.37,2333.11c8.08-0.43,16.2-0.37,24.24,0.36c8.04,0.84,15.99,2.4,23.63,4.77
						c-8.02-0.09-15.89,0.13-23.69,0.68c-7.81,0.67-15.53,1.63-23.21,2.88c-15.35,2.59-30.5,6.26-45.67,10.26
						c-15.16,4.02-30.41,8.29-45.85,12c-15.44,3.69-30.97,7.05-46.83,9.33c14.53-6.74,29.38-12.41,44.33-17.74
						c14.95-5.27,30.02-10.28,45.51-14.38C842.31,2337.2,858.22,2334.14,874.37,2333.11z"/>
				</g>
			</g>
		</g>
	</g>
</g>
</svg>
